<?xml version="1.0" encoding="utf-8"?>
<!-- Generator: Adobe Illustrator 18.1.1, SVG Export Plug-In . SVG Version: 6.00 Build 0)  -->
<!DOCTYPE svg PUBLIC "-//W3C//DTD SVG 1.1//EN" "http://www.w3.org/Graphics/SVG/1.1/DTD/svg11.dtd">
<svg version="1.1" id="Layer_1" xmlns="http://www.w3.org/2000/svg" xmlns:xlink="http://www.w3.org/1999/xlink" x="0px" y="0px"
   viewBox="0 0 40 40" enable-background="new 0 0 40 40" xml:space="preserve">
<g>
  <rect y="5.3" opacity="0.4" fill="#F1F1F1" width="26.8" height="26.8"/>
  <rect x="1.7" y="13.4" opacity="0.2" fill="#FFFFFF" width="22.6" height="16.4"/>
</g>
<path fill="#FFFFFF" d="M36.9,28.6c0.6-1.3,1.7-2,3-2.2c0.1-0.9,0.2-1.8,0.1-2.6c-0.3-0.1-0.6-0.1-0.8-0.3c-1.8-0.8-2.7-3-1.9-4.8
  c0.1-0.3,0.3-0.6,0.5-0.8c-0.5-0.7-1.1-1.3-1.7-1.8c-1,0.8-2.4,1-3.7,0.5c-1.3-0.6-2.1-1.8-2.2-3.1l0,0c-0.8-0.1-1.6-0.1-2.5,0
  c0,0.3-0.1,0.7-0.3,1c-0.8,1.9-3,2.7-4.8,1.9c-0.3-0.1-0.6-0.3-0.9-0.5c-0.7,0.6-1.4,1.3-2,2c0.6,1,0.7,2.3,0.2,3.4
  c-0.5,1.1-1.5,1.9-2.6,2.1c-0.1,0.8-0.1,1.6-0.1,2.4c0.3,0,0.7,0.1,1,0.3c1.8,0.8,2.7,3,1.9,4.8c-0.1,0.3-0.3,0.6-0.6,0.9
  c0.5,0.6,1,1.2,1.6,1.7c1-0.8,2.5-1.1,3.7-0.5c1.3,0.6,2.1,1.8,2.2,3.1c0.9,0.1,1.7,0.1,2.6,0c0-0.3,0.1-0.6,0.3-0.9
  c0.8-1.9,3-2.7,4.8-1.9c0.3,0.1,0.5,0.3,0.8,0.5c0.6-0.4,1.1-1,1.6-1.5C36.5,31.1,36.3,29.8,36.9,28.6z M25.8,31.2
  c-3.6-1.6-5.2-5.8-3.6-9.4c1.6-3.6,5.8-5.2,9.4-3.7c3.6,1.6,5.2,5.8,3.6,9.4C33.5,31.1,29.4,32.8,25.8,31.2z"/>
</svg>
