<?xml version="1.0" encoding="utf-8"?>
<!-- Generator: Adobe Illustrator 18.1.1, SVG Export Plug-In . SVG Version: 6.00 Build 0)  -->
<!DOCTYPE svg PUBLIC "-//W3C//DTD SVG 1.1//EN" "http://www.w3.org/Graphics/SVG/1.1/DTD/svg11.dtd">
<svg version="1.1" id="Layer_1" xmlns="http://www.w3.org/2000/svg" xmlns:xlink="http://www.w3.org/1999/xlink" x="0px" y="0px"
   viewBox="0 0 40 40" enable-background="new 0 0 40 40" xml:space="preserve">
<g>
  <g>
    <g>
      <circle fill="none" stroke="#BABCBE" stroke-miterlimit="10" cx="4.3" cy="13.6" r="2.8"/>
      <path fill="none" stroke="#BABCBE" stroke-miterlimit="10" d="M17.3,28.1c0,0,2-13.7-9.8-13.7"/>
      <circle fill="none" stroke="#BABCBE" stroke-miterlimit="10" cx="35.1" cy="13.6" r="2.8"/>
      <path fill="none" stroke="#BABCBE" stroke-miterlimit="10" d="M22,28.1c0,0-2-13.7,9.8-13.7"/>
      <circle fill="none" stroke="#BABCBE" stroke-miterlimit="10" cx="28.8" cy="4.8" r="2.8"/>
      <path fill="none" stroke="#BABCBE" stroke-miterlimit="10" d="M20.4,28.1c0,0-0.8-19.4,6.4-21.3"/>
      <circle fill="none" stroke="#009EEF" stroke-miterlimit="10" cx="10.6" cy="4.8" r="2.8"/>
      <path fill="none" stroke="#009EEF" stroke-miterlimit="10" d="M19,28.1c0,0,0.8-19.4-6.4-21.3"/>
    </g>
  </g>
</g>
<g>
  <polygon opacity="0.25" fill="#FFFFFF" points="0,10.4 0,30.9 12.7,38 12.7,16.8   "/>
  <polygon opacity="0.25" fill="#FFFFFF" points="27.3,10.4 27.3,30.6 40,38 40,16.8   "/>
  <polygon opacity="0.25" fill="#FFFFFF" points="26.8,10.4 26.8,30.6 13.1,38 13.1,16.8   "/>
</g>
</svg>
