<svg width="125px" height="25px" viewBox="0 0 125 25">
<g>
  <path fill="#009ADE" d="M11,8.3c-0.5-0.6-1.2-1.1-1.9-1.5C8.3,6.5,7.5,6.3,6.5,6.3C5.7,6.3,5,6.4,4.4,6.7C3.9,6.8,3.4,7,3.1,7.2V0
    L0.7,0.4l0,0v19.4l0,0c0.6,0.2,1.3,0.3,2.1,0.5c0.9,0.2,1.9,0.2,3,0.2c1,0,2-0.2,2.8-0.5c0.8-0.3,1.5-0.8,2.1-1.4
    c0.6-0.6,1-1.4,1.4-2.2c0.3-0.9,0.5-1.9,0.5-3c0-1-0.1-2-0.4-2.9C11.9,9.7,11.5,8.9,11,8.3z M10,13.4c0,1.6-0.4,2.8-1.2,3.6
    c-0.8,0.8-1.8,1.3-3.1,1.3c-0.7,0-1.2,0-1.6-0.1c-0.4-0.1-0.8-0.1-1-0.2V9.5c0.3-0.2,0.7-0.5,1.3-0.7c0.5-0.2,1.2-0.3,1.8-0.3
    c0.7,0,1.3,0.1,1.8,0.4c0.5,0.2,0.9,0.6,1.2,1c0.3,0.4,0.5,1,0.7,1.6C10,12.1,10,12.7,10,13.4z"/>
  <path fill="#009ADE" d="M18.9,18.2c-0.3-0.1-0.5-0.2-0.6-0.3c-0.2-0.2-0.3-0.4-0.3-0.6c-0.1-0.3-0.1-0.6-0.1-1V0l-2.4,0.4l0,0v16.2
    c0,1.3,0.3,2.2,0.9,2.8c0.6,0.6,1.7,0.9,3.2,1l0,0l0.3-2.1l0,0C19.5,18.3,19.1,18.3,18.9,18.2z"/>
  <path fill="#009ADE" d="M30.3,18.1c-0.1,0-0.2,0.1-0.4,0.1c-0.2,0-0.4,0.1-0.7,0.1c-0.2,0-0.5,0-0.8,0.1c-0.3,0-0.5,0-0.8,0
    c-1.2,0-2.1-0.4-2.6-1.1c-0.5-0.7-0.8-1.9-0.8-3.5V6.6h-2.5v7.6c0,0.9,0.1,1.8,0.3,2.5c0.2,0.8,0.5,1.4,0.9,2c0.4,0.6,1,1,1.7,1.3
    c0.7,0.3,1.6,0.5,2.6,0.5c1.2,0,2.3-0.1,3.2-0.2c0.9-0.2,1.6-0.3,2.2-0.4l0,0V6.6h-2.5V18.1z"/>
  <path fill="#009ADE" d="M46,8c-1-1.1-2.4-1.7-4.2-1.7c-0.8,0-1.6,0.1-2.3,0.4c-0.7,0.3-1.4,0.7-2,1.3c-0.6,0.6-1,1.3-1.4,2.2
    c-0.3,0.9-0.5,1.9-0.5,3.1c0,1,0.1,2,0.4,2.8c0.3,0.9,0.7,1.6,1.2,2.2c0.6,0.6,1.3,1.1,2.1,1.5c0.9,0.4,1.9,0.5,3.1,0.5
    c0.9,0,1.8-0.1,2.5-0.3c0.7-0.2,1.3-0.3,1.6-0.5l0,0l-0.3-2l0,0l0,0c-0.3,0.1-0.7,0.3-1.3,0.4c-0.6,0.1-1.3,0.2-2.1,0.2
    c-1.5,0-2.6-0.4-3.3-1.1c-0.7-0.7-1.1-1.8-1.2-3.1h9.2l0,0c0-0.1,0-0.3,0-0.5v-0.4C47.5,10.9,47,9.2,46,8z M41.8,8.4
    c1,0,1.7,0.4,2.3,1c0.6,0.7,0.8,1.6,0.8,2.6h-6.6c0.1-0.5,0.2-0.9,0.3-1.3c0.2-0.4,0.4-0.8,0.7-1.2c0.3-0.3,0.7-0.6,1.1-0.8
    C40.7,8.5,41.2,8.4,41.8,8.4z"/>
</g>
<g>
  <g>
    <path fill="#FFFFFF" d="M124.8,7.7c0,0.2,0,0.4-0.1,0.5c-0.1,0.2-0.2,0.3-0.3,0.4c-0.1,0.1-0.2,0.2-0.4,0.3
      C123.9,9,123.7,9,123.6,9s-0.3,0-0.5-0.1c-0.1-0.1-0.3-0.1-0.4-0.3c-0.1-0.1-0.2-0.2-0.3-0.4c-0.1-0.2-0.1-0.3-0.1-0.5
      s0-0.4,0.1-0.5c0.1-0.2,0.2-0.3,0.3-0.4c0.1-0.1,0.2-0.2,0.4-0.3c0.1-0.1,0.3-0.1,0.5-0.1s0.3,0,0.5,0.1c0.1,0.1,0.3,0.1,0.4,0.3
      c0.1,0.1,0.2,0.2,0.3,0.4C124.8,7.3,124.8,7.5,124.8,7.7z M124.5,7.7c0-0.2,0-0.3-0.1-0.4c0-0.1-0.1-0.2-0.2-0.3
      c-0.1-0.1-0.2-0.2-0.3-0.2c-0.1-0.1-0.2-0.1-0.4-0.1s-0.3,0-0.4,0.1c-0.1,0.1-0.2,0.1-0.3,0.2c-0.1,0.1-0.2,0.2-0.2,0.3
      c0,0.1-0.1,0.3-0.1,0.4c0,0.2,0,0.3,0.1,0.4c0,0.1,0.1,0.2,0.2,0.3c0.1,0.1,0.2,0.2,0.3,0.2c0.1,0.1,0.2,0.1,0.4,0.1
      s0.3,0,0.4-0.1c0.1-0.1,0.2-0.1,0.3-0.2c0.1-0.1,0.2-0.2,0.2-0.3C124.5,8,124.5,7.9,124.5,7.7z M123.9,8.4
      c-0.1-0.1-0.1-0.2-0.2-0.3c-0.1-0.1-0.1-0.2-0.2-0.2h-0.2v0.5h-0.3V7c0.1,0,0.1,0,0.2,0c0.1,0,0.1,0,0.2,0c0.2,0,0.4,0,0.5,0.1
      c0.1,0.1,0.2,0.2,0.2,0.3c0,0.1,0,0.2-0.1,0.2c0,0.1-0.1,0.1-0.2,0.2c0,0,0.1,0.1,0.1,0.1c0,0,0.1,0.1,0.1,0.1
      c0,0.1,0.1,0.1,0.1,0.2c0,0.1,0.1,0.1,0.1,0.2H123.9z M123.3,7.7h0.1c0.1,0,0.2,0,0.3,0s0.1-0.1,0.1-0.2c0-0.1,0-0.2-0.1-0.2
      c-0.1,0-0.2-0.1-0.2-0.1c0,0-0.1,0-0.1,0c0,0-0.1,0-0.1,0V7.7z"/>
  </g>
  <g>
    <path fill="#FFFFFF" d="M60.5,8.3c-0.6-0.6-1.3-1.1-2.1-1.4c-0.8-0.3-1.8-0.5-2.8-0.5c-1.1,0-2.1,0.1-3,0.2
      c-0.9,0.2-1.6,0.3-2.1,0.5l0,0V25h2.5v-5.4c0.3,0.2,0.7,0.4,1.3,0.6c0.6,0.2,1.3,0.3,2.1,0.3c1,0,1.8-0.2,2.6-0.5
      c0.8-0.3,1.4-0.8,1.9-1.5c0.5-0.6,0.9-1.4,1.2-2.2c0.3-0.9,0.4-1.8,0.4-2.8c0-1.1-0.2-2.1-0.5-3C61.5,9.6,61,8.9,60.5,8.3z
       M52.8,8.8c0.2-0.1,0.6-0.1,1-0.2c0.4-0.1,1-0.1,1.7-0.1c1.3,0,2.3,0.4,3.1,1.3c0.8,0.8,1.2,2.1,1.2,3.6c0,0.7-0.1,1.3-0.2,1.9
      c-0.1,0.6-0.4,1.1-0.7,1.5c-0.3,0.4-0.7,0.8-1.2,1c-0.5,0.2-1.1,0.4-1.8,0.4c-0.7,0-1.3-0.1-1.8-0.3c-0.5-0.2-1-0.5-1.3-0.7V8.8z"
      />
    <path fill="#FFFFFF" d="M68.6,18.2c-0.3-0.1-0.5-0.2-0.6-0.3c-0.2-0.2-0.3-0.4-0.3-0.6c-0.1-0.3-0.1-0.6-0.1-1V0l-2.4,0.4l0,0
      v16.2c0,1.3,0.3,2.2,0.9,2.8c0.6,0.6,1.7,0.9,3.2,1l0,0l0.3-2l0,0l0,0C69.2,18.3,68.8,18.3,68.6,18.2z"/>
    <path fill="#FFFFFF" d="M80.2,7.8c-0.4-0.5-1-0.8-1.6-1.1c-0.7-0.3-1.5-0.4-2.5-0.4c-0.8,0-1.6,0.1-2.4,0.2
      c-0.7,0.1-1.3,0.3-1.6,0.4l0,0l0.3,2l0,0l0,0c0.3-0.1,0.7-0.2,1.3-0.3c0.6-0.1,1.3-0.2,2.1-0.2c0.6,0,1.1,0.1,1.5,0.3
      c0.4,0.2,0.7,0.4,0.9,0.7c0.2,0.3,0.4,0.6,0.5,1c0.1,0.4,0.1,0.8,0.1,1.2v0.6c-0.1,0-0.2,0-0.3-0.1c-0.2,0-0.4-0.1-0.6-0.1
      c-0.2,0-0.5-0.1-0.7-0.1c-0.3,0-0.5,0-0.8,0c-0.8,0-1.5,0.1-2.2,0.2c-0.7,0.2-1.3,0.4-1.8,0.7c-0.5,0.3-0.9,0.8-1.2,1.3
      c-0.3,0.5-0.5,1.2-0.5,1.9c0,0.8,0.1,1.5,0.4,2c0.3,0.6,0.6,1,1.1,1.3c0.5,0.3,1,0.6,1.7,0.7c0.6,0.2,1.3,0.2,2.1,0.2
      c0.5,0,1.1,0,1.6-0.1c0.5,0,1.1-0.1,1.5-0.1c0.5-0.1,0.9-0.1,1.3-0.2c0.4-0.1,0.7-0.1,0.9-0.1l0,0v-8.5c0-0.8-0.1-1.5-0.3-2.1
      C80.9,8.8,80.6,8.2,80.2,7.8z M78.9,14.2v4c-0.3,0.1-0.7,0.1-1.1,0.1c-0.4,0-0.9,0-1.5,0c-0.9,0-1.7-0.2-2.2-0.5
      c-0.5-0.3-0.8-0.9-0.8-1.8c0-0.5,0.1-0.8,0.3-1.1c0.2-0.3,0.5-0.5,0.8-0.7c0.3-0.2,0.7-0.3,1.1-0.3c0.4-0.1,0.8-0.1,1.2-0.1
      c0.5,0,1,0,1.4,0.1C78.4,14.1,78.7,14.2,78.9,14.2z"/>
    <path fill="#FFFFFF" d="M94.5,8.1c-0.4-0.5-1-1-1.7-1.3c-0.7-0.3-1.6-0.5-2.7-0.5c-1.2,0-2.3,0.1-3.2,0.2C86,6.8,85.3,6.9,84.7,7
      l0,0v13.2h2.5V8.8c0.1,0,0.2,0,0.4-0.1c0.2,0,0.4-0.1,0.7-0.1c0.2,0,0.5,0,0.8-0.1c0.3,0,0.6,0,0.8,0c0.6,0,1.2,0.1,1.6,0.2
      c0.4,0.2,0.8,0.4,1,0.8c0.3,0.4,0.4,0.8,0.6,1.4c0.1,0.6,0.2,1.3,0.2,2.1v7.1h2.5v-7.6c0-0.9-0.1-1.8-0.3-2.5
      C95.2,9.3,94.9,8.6,94.5,8.1z"/>
    <path fill="#FFFFFF" d="M104.5,6.3c-0.8,0-1.6,0.1-2.3,0.4c-0.7,0.3-1.4,0.7-2,1.3c-0.6,0.6-1,1.3-1.4,2.2
      c-0.3,0.9-0.5,1.9-0.5,3.1c0,1,0.1,2,0.4,2.8c0.3,0.9,0.7,1.6,1.2,2.2c0.6,0.6,1.3,1.1,2.1,1.5c0.9,0.4,1.9,0.5,3.1,0.5
      c0.9,0,1.8-0.1,2.5-0.3c0.7-0.2,1.3-0.3,1.6-0.5l0,0l-0.3-2l0,0l0,0c-0.3,0.1-0.7,0.3-1.3,0.4c-0.6,0.1-1.3,0.2-2.1,0.2
      c-1.5,0-2.6-0.4-3.3-1.1c-0.7-0.7-1.1-1.8-1.2-3.1h9.2l0,0c0-0.1,0-0.3,0-0.5v-0.4c0-2.3-0.5-4.1-1.5-5.2
      C107.8,6.9,106.3,6.3,104.5,6.3z M104.5,8.4c1,0,1.7,0.4,2.3,1c0.6,0.7,0.8,1.6,0.8,2.6H101c0.1-0.5,0.2-0.9,0.3-1.3
      c0.2-0.4,0.4-0.8,0.7-1.2c0.3-0.3,0.6-0.6,1.1-0.8C103.5,8.5,104,8.4,104.5,8.4z"/>
    <path fill="#FFFFFF" d="M120.6,17.7L120.6,17.7L120.6,17.7c-0.2,0.1-0.5,0.2-1,0.3c-0.4,0.2-1,0.2-1.7,0.2c-0.4,0-0.8-0.1-1.1-0.2
      c-0.3-0.1-0.6-0.3-0.8-0.5c-0.2-0.2-0.4-0.6-0.5-1c-0.1-0.4-0.2-1-0.2-1.7V8.7h5.1V6.6h-5.1V2.5L113,2.9l0,0V15
      c0,0.9,0.1,1.7,0.2,2.4c0.1,0.7,0.4,1.3,0.8,1.7c0.4,0.5,0.9,0.8,1.5,1.1c0.6,0.2,1.4,0.4,2.3,0.4c0.8,0,1.5-0.1,2.1-0.3
      c0.6-0.2,1-0.3,1.3-0.5l0,0L120.6,17.7z"/>
  </g>
</g>
</svg>
